<svg xmlns="http://www.w3.org/2000/svg" viewBox="0 0 560 560"><defs><style>.a{fill:#7ed6df;}.b{fill:#9aaf8c;}.c{fill:#9acc7d;}.d{fill:#6ab04c;}</style></defs><path class="a" d="M478.77,547.5H393.58a11.94,11.94,0,0,1,0-23.88h85.19a44.9,44.9,0,0,0,44.85-44.85V393.58a11.94,11.94,0,0,1,23.88,0v85.19A68.81,68.81,0,0,1,478.77,547.5Zm-312.35,0H81.23A68.81,68.81,0,0,1,12.5,478.77V393.58a11.94,11.94,0,0,1,23.88,0v85.19a44.9,44.9,0,0,0,44.85,44.85h85.19a11.94,11.94,0,1,1,0,23.88ZM535.56,178.36a11.94,11.94,0,0,1-11.94-11.94V81.23a44.9,44.9,0,0,0-44.85-44.85H393.58a11.94,11.94,0,1,1,0-23.88h85.19A68.81,68.81,0,0,1,547.5,81.23v85.19A12,12,0,0,1,535.56,178.36Zm-511.12,0A12,12,0,0,1,12.5,166.42V81.23A68.81,68.81,0,0,1,81.23,12.5h85.19a11.94,11.94,0,1,1,0,23.88H81.23A44.9,44.9,0,0,0,36.38,81.23v85.19A11.94,11.94,0,0,1,24.44,178.36Z"/><path class="b" d="M247.47,499.57q-5.75,8.49-14.58,10.62-8.25,2-16.79-2.46t-13.41-16.91l-67-279c-6.48.74-12.07-.51-16.78-3.71a22,22,0,0,1-9.18-13.57,27.94,27.94,0,0,1,0-11.75,29.64,29.64,0,0,1,6-12.58,246.82,246.82,0,0,1,50.43-39,218.9,218.9,0,0,1,60.74-24.78,180.39,180.39,0,0,1,51.46-4.93,133.34,133.34,0,0,1,49.36,12.28q28,13.08,44,32.75a108.13,108.13,0,0,1,21.55,43.09A116.12,116.12,0,0,1,396,227.89a141.29,141.29,0,0,1-9.15,38.39,155.24,155.24,0,0,1-49.56,66q28.41,19.79,61.06,41.64t61,41.06A29.33,29.33,0,0,1,470.1,431.6q2.38,9.94-2.62,17.65a22.91,22.91,0,0,1-14.43,9.94,30.68,30.68,0,0,1-10.8.43,26.27,26.27,0,0,1-12.07-4.84q-4.53-3.21-15.66-10.77t-25.24-16.84q-14.08-9.3-29.74-20.08t-29.45-20.15q-13.77-9.37-24.85-16.62t-15.6-10.5a306.19,306.19,0,0,1-30.83,11.75q-15.65,5-31.39,9.38l23.17,96.53Q253.25,491.1,247.47,499.57Zm57.78-342.1a93.7,93.7,0,0,0-34.3-6.62A149.06,149.06,0,0,0,235.5,155a157.39,157.39,0,0,0-29.34,10.14,193.51,193.51,0,0,0-26.9,15.11L215.91,333q22.1-6.54,43.93-14.26a183.14,183.14,0,0,0,41.65-21.13,94,94,0,0,0,21.21-19.34,118.62,118.62,0,0,0,15.56-24.76,95.89,95.89,0,0,0,8.14-27,68.82,68.82,0,0,0-.95-26.07,59.67,59.67,0,0,0-12.8-24.78Q323.08,164.33,305.25,157.47Z"/><path class="c" d="M251.47,484.57q-5.75,8.49-14.58,10.62-8.25,2-16.79-2.46t-13.41-16.91l-67-279c-6.48.74-12.07-.51-16.78-3.71a22,22,0,0,1-9.18-13.57,27.94,27.94,0,0,1,0-11.75,29.64,29.64,0,0,1,6-12.58,246.82,246.82,0,0,1,50.43-39,218.9,218.9,0,0,1,60.74-24.78,180.39,180.39,0,0,1,51.46-4.93A133.34,133.34,0,0,1,331.75,98.7q28,13.08,44,32.75a108.13,108.13,0,0,1,21.55,43.09A116.12,116.12,0,0,1,400,212.89a141.29,141.29,0,0,1-9.15,38.39,155.24,155.24,0,0,1-49.56,66q28.41,19.79,61.06,41.64t61,41.06A29.33,29.33,0,0,1,474.1,416.6q2.38,9.94-2.62,17.65a22.91,22.91,0,0,1-14.43,9.94,30.68,30.68,0,0,1-10.8.43,26.27,26.27,0,0,1-12.07-4.84q-4.53-3.21-15.66-10.77t-25.24-16.84q-14.08-9.3-29.74-20.08t-29.45-20.15q-13.77-9.37-24.85-16.62t-15.6-10.5a306.19,306.19,0,0,1-30.83,11.75q-15.65,5-31.39,9.38l23.17,96.53Q257.25,476.1,251.47,484.57Zm57.78-342.1a93.7,93.7,0,0,0-34.3-6.62A149.06,149.06,0,0,0,239.5,140a157.39,157.39,0,0,0-29.34,10.14,193.51,193.51,0,0,0-26.9,15.11L219.91,318q22.1-6.54,43.93-14.26a183.14,183.14,0,0,0,41.65-21.13,94,94,0,0,0,21.21-19.34,118.62,118.62,0,0,0,15.56-24.76,95.89,95.89,0,0,0,8.14-27,68.82,68.82,0,0,0-.95-26.07,59.67,59.67,0,0,0-12.8-24.78Q327.08,149.33,309.25,142.47Z"/><path class="d" d="M255.48,465q-5.76,8.49-14.58,10.62-8.27,2-16.79-2.46T210.7,456.29l-67-279Q134,178.34,127,173.54A21.91,21.91,0,0,1,117.77,160a27.77,27.77,0,0,1,0-11.75,29.61,29.61,0,0,1,6-12.57,246.94,246.94,0,0,1,50.43-39,218.87,218.87,0,0,1,60.74-24.77A180.39,180.39,0,0,1,286.4,66.9a133,133,0,0,1,49.36,12.28q28,13.08,44,32.74A108.13,108.13,0,0,1,401.32,155,116.41,116.41,0,0,1,404,193.36a141.36,141.36,0,0,1-9.15,38.4,155.29,155.29,0,0,1-49.56,66q28.41,19.8,61.06,41.64t61,41.06a29.33,29.33,0,0,1,10.83,16.58q2.38,9.94-2.62,17.65a23,23,0,0,1-14.43,9.95,30.92,30.92,0,0,1-10.8.43,26.38,26.38,0,0,1-12.07-4.84q-4.53-3.22-15.66-10.78t-25.24-16.84q-14.09-9.28-29.74-20.08T338.1,352.41c-9.18-6.24-17.48-11.8-24.86-16.61s-12.59-8.33-15.59-10.51A301.45,301.45,0,0,1,266.82,337q-15.65,5-31.39,9.38L258.6,443Q261.24,456.57,255.48,465Zm57.77-342.1A93.4,93.4,0,0,0,279,116.33a149.56,149.56,0,0,0-35.45,4.17,157.42,157.42,0,0,0-29.34,10.15,191.48,191.48,0,0,0-26.9,15.11l36.65,152.69q22.1-6.52,43.93-14.26a182.74,182.74,0,0,0,41.65-21.13,94.15,94.15,0,0,0,21.21-19.33A118.62,118.62,0,0,0,346.27,219a96.32,96.32,0,0,0,8.14-27,69.09,69.09,0,0,0-1-26.08,59.57,59.57,0,0,0-12.8-24.77Q331.09,129.8,313.25,122.94Z"/></svg>